<svg width="55" height="55" viewBox="0 0 55 55" fill="none" xmlns="http://www.w3.org/2000/svg">
<circle cx="27.5" cy="27.5" r="27.5" fill="#D9D9D9"/>
<g clip-path="url(#clip0_35_46)">
<path d="M37.7083 34.6458C39.4804 34.286 41.0556 33.2805 42.1281 31.8246C43.2006 30.3688 43.6938 28.5663 43.5121 26.7672C43.3304 24.9681 42.4866 23.3007 41.1447 22.0887C39.8027 20.8767 38.0583 20.2065 36.25 20.2083H34.4125C33.9294 18.3378 32.9892 16.6164 31.6765 15.1989C30.3638 13.7814 28.7197 12.7121 26.8916 12.087C25.0636 11.4618 23.1089 11.3004 21.2031 11.6173C19.2973 11.9342 17.5 12.7193 15.9726 13.9024C14.4452 15.0854 13.2355 16.6292 12.4521 18.3952C11.6687 20.1612 11.3361 22.0941 11.4842 24.0204C11.6323 25.9467 12.2565 27.806 13.3007 29.4315C14.3449 31.057 15.7764 32.3977 17.4667 33.3333M28.9583 26.0417L23.125 34.7917H31.875L26.0417 43.5417" stroke="#1E1E1E" stroke-width="4" stroke-linecap="round" stroke-linejoin="round"/>
</g>
<defs>
<clipPath id="clip0_35_46">
<rect width="35" height="35" fill="white" transform="translate(10 10)"/>
</clipPath>
</defs>
</svg>
