<?xml version="1.0" standalone="no"?>
<!DOCTYPE svg PUBLIC "-//W3C//DTD SVG 20010904//EN"
 "http://www.w3.org/TR/2001/REC-SVG-20010904/DTD/svg10.dtd">
<svg version="1.0" xmlns="http://www.w3.org/2000/svg"
 width="94.000000pt" height="80.000000pt" viewBox="0 0 94.000000 80.000000"
 preserveAspectRatio="xMidYMid meet">

<g transform="translate(0.000000,80.000000) scale(0.100000,-0.100000)"
fill="#000000" stroke="none">
<path d="M421 583 c-51 -25 -73 -67 -68 -132 3 -47 9 -59 40 -88 32 -28 44
-33 88 -33 27 0 60 5 71 11 18 10 28 3 87 -55 53 -52 69 -64 79 -54 10 10 -2
26 -55 80 -63 63 -66 69 -55 93 54 119 -69 236 -187 178z m130 -52 c68 -69 10
-182 -84 -164 -111 21 -95 193 18 193 27 0 44 -8 66 -29z"/>
</g>
</svg>
